<svg width="96" height="32" viewBox="0 0 96 32" fill="none" xmlns="http://www.w3.org/2000/svg">
<path d="M1.21105e-06 31.747L0 0H3.1747V14.2862H12.6988V17.4609H3.1747V31.747H1.21105e-06Z" fill="black"/>
<path d="M16 31.4961V0H19.2V31.4961H16Z" fill="black"/>
<path d="M32.0253 31.747H47.8988V28.5723H35.2V17.4609H47.8988V14.2862H35.2V3.1747H47.8988V0H32.0253V14.2862H22.5012V17.4609H32.0253V31.747Z" fill="black"/>
<path fill-rule="evenodd" clip-rule="evenodd" d="M70.199 17.3228H63.1124C62.6721 17.3228 62.2393 17.29 61.8163 17.2265L55.2503 32L52.3722 30.7208L58.8296 16.1917C56.2144 14.701 54.451 11.8871 54.451 8.66142C54.451 3.87786 58.3288 0 63.1124 0H73.3486V31.4961H70.199V17.3228ZM70.199 3.14961H63.1124C60.0683 3.14961 57.6006 5.61732 57.6006 8.66142C57.6006 11.7055 60.0683 14.1732 63.1124 14.1732H70.199V3.14961Z" fill="black"/>
<path d="M76.9518 0V6.34941H80.1265V3.1747H92.8253V28.5723H80.1265V25.3976H76.9518V31.747H96V0H76.9518Z" fill="black"/>
<path d="M83.2 17.3228V18.8976H81.6V15.748H84.8V17.3228H83.2Z" fill="black"/>
<path d="M91.2 18.8976H89.6V17.3228H88V15.748H91.2V18.8976Z" fill="black"/>
</svg>
